<svg width="26" height="26" viewBox="0 0 26 26" fill="none" xmlns="http://www.w3.org/2000/svg">
<path fill-rule="evenodd" clip-rule="evenodd" d="M20.9421 17.1925C20.8841 17.2507 20.8151 17.2969 20.7392 17.3284C20.6632 17.3599 20.5818 17.3761 20.4996 17.3761C20.4174 17.3761 20.336 17.3599 20.2601 17.3284C20.1841 17.2969 20.1152 17.2507 20.0571 17.1925L12.9996 10.1338L5.94211 17.1925C5.884 17.2506 5.81502 17.2967 5.73909 17.3282C5.66317 17.3596 5.58179 17.3758 5.49961 17.3758C5.41743 17.3758 5.33606 17.3596 5.26013 17.3282C5.18421 17.2967 5.11522 17.2506 5.05711 17.1925C4.999 17.1344 4.95291 17.0654 4.92146 16.9895C4.89001 16.9136 4.87383 16.8322 4.87383 16.75C4.87383 16.6678 4.89001 16.5865 4.92146 16.5105C4.95291 16.4346 4.999 16.3656 5.05711 16.3075L12.5571 8.80751C12.6152 8.74931 12.6841 8.70313 12.7601 8.67162C12.836 8.64011 12.9174 8.62389 12.9996 8.62389C13.0818 8.62389 13.1632 8.64011 13.2392 8.67162C13.3151 8.70313 13.3841 8.74931 13.4421 8.80751L20.9421 16.3075C21.0003 16.3656 21.0465 16.4345 21.078 16.5105C21.1095 16.5864 21.1257 16.6678 21.1257 16.75C21.1257 16.8322 21.1095 16.9136 21.078 16.9896C21.0465 17.0655 21.0003 17.1345 20.9421 17.1925Z" fill="#262F36"/>
</svg>
