<svg width="26" height="26" viewBox="0 0 26 26" fill="none" xmlns="http://www.w3.org/2000/svg">
<path fill-rule="evenodd" clip-rule="evenodd" d="M5.05764 8.80752C5.1157 8.74931 5.18467 8.70314 5.2606 8.67163C5.33653 8.64012 5.41793 8.6239 5.50014 8.6239C5.58235 8.6239 5.66375 8.64012 5.73968 8.67163C5.81561 8.70314 5.88458 8.74931 5.94264 8.80752L13.0001 15.8663L20.0576 8.80752C20.1158 8.74941 20.1847 8.70331 20.2607 8.67186C20.3366 8.64042 20.418 8.62423 20.5001 8.62423C20.5823 8.62423 20.6637 8.64042 20.7396 8.67186C20.8155 8.70331 20.8845 8.74941 20.9426 8.80752C21.0008 8.86563 21.0468 8.93461 21.0783 9.01054C21.1097 9.08646 21.1259 9.16784 21.1259 9.25002C21.1259 9.3322 21.1097 9.41357 21.0783 9.4895C21.0468 9.56542 21.0008 9.63441 20.9426 9.69252L13.4426 17.1925C13.3846 17.2507 13.3156 17.2969 13.2397 17.3284C13.1638 17.3599 13.0824 17.3761 13.0001 17.3761C12.9179 17.3761 12.8365 17.3599 12.7606 17.3284C12.6847 17.2969 12.6157 17.2507 12.5576 17.1925L5.05764 9.69252C4.99944 9.63446 4.95326 9.56549 4.92175 9.48956C4.89024 9.41363 4.87402 9.33223 4.87402 9.25002C4.87402 9.16781 4.89024 9.08641 4.92175 9.01048C4.95326 8.93454 4.99944 8.86558 5.05764 8.80752V8.80752Z" fill="#262F36"/>
</svg>
