<svg width="12" height="12" viewBox="0 0 12 12" fill="none" xmlns="http://www.w3.org/2000/svg">
<path d="M0.96912 0.968997C1.03879 0.899153 1.12155 0.843738 1.21267 0.805928C1.30379 0.768119 1.40147 0.748657 1.50012 0.748657C1.59877 0.748657 1.69645 0.768119 1.78757 0.805928C1.87869 0.843738 1.96145 0.899153 2.03112 0.968997L6.00012 4.9395L9.96912 0.968997C10.0389 0.899266 10.1216 0.843951 10.2127 0.806212C10.3039 0.768474 10.4015 0.74905 10.5001 0.74905C10.5987 0.74905 10.6964 0.768474 10.7875 0.806212C10.8786 0.843951 10.9614 0.899266 11.0311 0.968997C11.1009 1.03873 11.1562 1.12151 11.1939 1.21262C11.2316 1.30373 11.2511 1.40138 11.2511 1.5C11.2511 1.59861 11.2316 1.69626 11.1939 1.78737C11.1562 1.87848 11.1009 1.96127 11.0311 2.031L7.06062 6L11.0311 9.969C11.1009 10.0387 11.1562 10.1215 11.1939 10.2126C11.2316 10.3037 11.2511 10.4014 11.2511 10.5C11.2511 10.5986 11.2316 10.6963 11.1939 10.7874C11.1562 10.8785 11.1009 10.9613 11.0311 11.031C10.9614 11.1007 10.8786 11.156 10.7875 11.1938C10.6964 11.2315 10.5987 11.2509 10.5001 11.2509C10.4015 11.2509 10.3039 11.2315 10.2127 11.1938C10.1216 11.156 10.0389 11.1007 9.96912 11.031L6.00012 7.0605L2.03112 11.031C1.96139 11.1007 1.8786 11.156 1.7875 11.1938C1.69639 11.2315 1.59874 11.2509 1.50012 11.2509C1.4015 11.2509 1.30385 11.2315 1.21274 11.1938C1.12164 11.156 1.03885 11.1007 0.96912 11.031C0.899388 10.9613 0.844073 10.8785 0.806334 10.7874C0.768596 10.6963 0.749172 10.5986 0.749172 10.5C0.749172 10.4014 0.768596 10.3037 0.806334 10.2126C0.844073 10.1215 0.899388 10.0387 0.96912 9.969L4.93962 6L0.96912 2.031C0.899275 1.96133 0.84386 1.87857 0.806051 1.78745C0.768241 1.69633 0.748779 1.59865 0.748779 1.5C0.748779 1.40135 0.768241 1.30366 0.806051 1.21255C0.84386 1.12143 0.899275 1.03867 0.96912 0.968997Z" fill="black"/>
</svg>
