<svg width="16" height="15" viewBox="0 0 16 15" fill="none" xmlns="http://www.w3.org/2000/svg">
<path d="M6.75 2.5H14.875M6.75 2.5C6.75 2.83152 6.6183 3.14946 6.38388 3.38388C6.14946 3.6183 5.83152 3.75 5.5 3.75C5.16848 3.75 4.85054 3.6183 4.61612 3.38388C4.3817 3.14946 4.25 2.83152 4.25 2.5M6.75 2.5C6.75 2.16848 6.6183 1.85054 6.38388 1.61612C6.14946 1.3817 5.83152 1.25 5.5 1.25C5.16848 1.25 4.85054 1.3817 4.61612 1.61612C4.3817 1.85054 4.25 2.16848 4.25 2.5M1.125 2.5H4.25M6.75 12.5H14.875M6.75 12.5C6.75 12.8315 6.6183 13.1495 6.38388 13.3839C6.14946 13.6183 5.83152 13.75 5.5 13.75C5.16848 13.75 4.85054 13.6183 4.61612 13.3839C4.3817 13.1495 4.25 12.8315 4.25 12.5M6.75 12.5C6.75 12.1685 6.6183 11.8505 6.38388 11.6161C6.14946 11.3817 5.83152 11.25 5.5 11.25C5.16848 11.25 4.85054 11.3817 4.61612 11.6161C4.3817 11.8505 4.25 12.1685 4.25 12.5M1.125 12.5H4.25M11.75 7.5H14.875M11.75 7.5C11.75 7.83152 11.6183 8.14946 11.3839 8.38388C11.1495 8.6183 10.8315 8.75 10.5 8.75C10.1685 8.75 9.85054 8.6183 9.61612 8.38388C9.3817 8.14946 9.25 7.83152 9.25 7.5M11.75 7.5C11.75 7.16848 11.6183 6.85054 11.3839 6.61612C11.1495 6.3817 10.8315 6.25 10.5 6.25C10.1685 6.25 9.85054 6.3817 9.61612 6.61612C9.3817 6.85054 9.25 7.16848 9.25 7.5M1.125 7.5H9.25" stroke="#ffffff" stroke-width="1.5" stroke-linecap="round" stroke-linejoin="round"/>
</svg>
