<svg fill="none" height="32" id="logo-main" width="208" xmlns="http://www.w3.org/2000/svg"><path d="M74.766 6.61h2.391l1.97 10.788h.047l1.617-10.787h2.721l-2.978 16.93h-2.439l-2.109-11.184h-.047l-1.97 11.184H71.53L68.317 6.61h2.72l1.782 10.787h.048l1.899-10.787zM87.306 10.714c0-2.392 1.408-4.336 4.456-4.336 3.048 0 4.455 1.944 4.455 4.336v8.723c0 2.392-1.407 4.338-4.455 4.338s-4.456-1.946-4.456-4.338v-8.723zm2.908 8.653c0 1.265.376 1.876 1.548 1.876 1.172 0 1.547-.61 1.547-1.876v-8.583c0-1.266-.375-1.874-1.547-1.874s-1.548.608-1.548 1.874v8.583zM104.283 23.54h-2.908V6.61h4.081c3.258 0 4.924 1.384 4.924 4.996 0 2.72-1.056 3.821-2.04 4.267l2.462 7.668h-2.954l-2.065-7.012c-.374.047-.984.07-1.5.07v6.942zm0-9.332h1.032c1.572 0 2.158-.585 2.158-2.602s-.586-2.603-2.158-2.603h-1.032v5.205zM117.128 9.143h-2.814V6.61h8.535v2.532h-2.813V23.54h-2.908V9.143zM127.162 23.54V6.61h2.908v6.894h3.095V6.61h2.908v16.93h-2.908v-7.504h-3.095v7.504h-2.908zM146.27 6.61h2.392l1.971 10.788h.046l1.619-10.787h2.719l-2.978 16.93H149.6l-2.111-11.184h-.046l-1.97 11.184h-2.439l-3.211-16.93h2.719l1.782 10.787h.047l1.899-10.787zM158.809 23.54V6.61h2.908v6.894h3.095V6.61h2.908v16.93h-2.908v-7.504h-3.095v7.504h-2.908zM176.186 6.61h-2.908v16.93h2.908V6.61zM182.113 23.54V6.61h2.908V21.01h4.571v2.532h-7.479zM193.977 6.61v16.93h8.113v-2.532h-5.207v-4.971h3.753v-2.533h-3.753V9.142h4.878V6.61h-7.784z" fill="#37373F" id="logo-main-wordmark"></path><path d="M55.204 6.693L50.266 1.1a1.171 1.171 0 0 0-.846-.394H49.393a1.157 1.157 0 0 0-.87.397L36.286 15.118 24.698 1.698a1.16 1.16 0 0 0-1.655-.106l-5.586 5.004a1.166 1.166 0 0 0-.102 1.625l4.138 4.772-1.849 2.132L7.87 1.314a1.16 1.16 0 0 0-.833-.406L6.984.907c-.304 0-.601.124-.818.337L.752 6.639a1.163 1.163 0 0 0-.06 1.58l18.062 20.826c.173.198.41.333.67.38a1.156 1.156 0 0 0 1.095-.38l7.447-8.587 7.432 8.587c.216.252.534.4.87.4H36.326c.325-.01.63-.155.843-.401l4.93-5.704L55.21 8.22a1.164 1.164 0 0 0-.007-1.528" fill="#FF7A3D"></path></svg>